<svg width="253" height="316" viewBox="0 0 253 316" fill="none" xmlns="http://www.w3.org/2000/svg">
<mask id="mask0" mask-type="alpha" maskUnits="userSpaceOnUse" x="0" y="32" width="253" height="252">
<path d="M126.795 283.835C196.292 283.835 252.63 227.497 252.63 158C252.63 88.5031 196.292 32.1648 126.795 32.1648C57.2978 32.1648 0.959442 88.5031 0.959442 158C0.959442 227.497 57.2978 283.835 126.795 283.835Z" fill="white"/>
</mask>
<g mask="url(#mask0)">
<path d="M126.795 283.835C196.291 283.835 252.63 227.497 252.63 158C252.63 88.5029 196.291 32.1646 126.795 32.1646C57.2978 32.1646 0.959412 88.5029 0.959412 158C0.959412 227.497 57.2978 283.835 126.795 283.835Z" fill="#9DDADB"/>
<path fill-rule="evenodd" clip-rule="evenodd" d="M270.1 424.07C268.278 413.774 266.608 403.451 265.091 393.105C264.37 388.194 263.668 383.278 263.036 378.353C262.593 374.903 261.919 370.958 264.265 368.403C267.565 364.806 270.564 361.728 270.968 356.576C271.348 351.729 269.71 346.445 268.686 341.74C266.539 331.873 263.865 322.128 260.911 312.475C257.909 302.668 254.618 292.954 251.279 283.258C248.158 274.192 245.158 265.045 241.093 256.347C233.377 239.841 220.326 227.617 204.195 219.455C200.182 217.425 192 210.178 187.808 208.556C183.955 207.064 183.969 211.42 180.177 209.779C177.145 208.468 174.322 206.719 172.625 203.789C170.782 200.609 166.16 196.16 165.456 192.457C163.965 184.61 165.58 177.93 159.984 172.024C155.015 166.779 148.336 163.186 141.426 161.256C126.225 157.013 105.951 159.98 96.7799 174.116C92.399 180.867 90.8682 189.026 84.9571 194.536C79.7959 199.347 80.9511 202.636 74.2655 205.115C73.8867 205.256 63.6245 203.053 63.2457 203.194C55.9324 201.628 48.9425 206.012 42.2329 208.556C32.23 212.348 22.7067 217.285 13.7596 223.15C-4.28159 234.98 -19.7336 250.342 -32.4725 267.724C-45.3167 285.25 -55.2825 304.894 -62.3784 325.424C-64.1017 330.412 -65.6494 335.459 -67.0148 340.556C-67.7792 343.408 -68.5959 346.367 -67.6653 349.287C-66.904 351.677 -65.2115 353.455 -63.2233 354.889C-60.5282 356.832 -55.1225 358.096 -55.2278 362.004C-55.3082 364.976 -56.3156 368.103 -56.8074 371.04C-57.3926 374.537 -57.8735 378.054 -58.3543 381.567C-60.5418 397.556 -62.2443 413.634 -62.9975 429.758C-63.7386 445.633 -64.3533 461.834 -63.2529 477.706C-63.1799 478.752 -62.8685 479.713 -62.3651 480.525C-62.8351 480.705 -62.871 481.581 -62.2865 481.705C-61.8773 481.792 -61.4687 481.878 -61.0592 481.965C-60.2087 482.609 -59.148 483.004 -57.9272 483.042C-57.0998 483.069 -56.2727 483.106 -55.4461 483.149C-46.7231 484.973 -38.0016 486.697 -29.1646 488.002C-18.4229 489.589 -7.64947 490.882 3.15741 491.934C25.3636 494.094 47.395 493.378 69.6303 492.213C91.8321 491.051 114.02 490.779 136.244 491.357C158.488 491.936 180.724 492.905 202.972 493.3C227.829 493.743 252.648 493.063 277.432 491.086C280.83 490.815 282.932 488.11 282.262 484.732C278.247 464.495 273.696 444.394 270.1 424.07Z" fill="white"/>
<path fill-rule="evenodd" clip-rule="evenodd" d="M42.2296 208.556L42.7151 208.369C49.2762 205.804 56.1053 201.665 63.2424 203.194C63.4949 203.1 68.139 204.047 71.3201 204.648L68.3007 207.802L62.9723 208.828C81.3542 239.188 103.095 254.369 128.194 254.369C153.294 254.369 172.339 239.188 185.331 208.828L187.104 208.336C187.323 208.387 187.556 208.46 187.805 208.556C191.997 210.178 200.179 217.425 204.191 219.455C220.322 227.617 233.374 239.841 241.089 256.347C245.019 264.755 247.954 273.583 250.964 282.351L251.276 283.257C254.615 292.954 257.905 302.668 260.907 312.475C263.733 321.708 266.302 331.026 268.399 340.453L268.683 341.739C269.707 346.445 271.345 351.729 270.965 356.576C270.82 358.411 270.347 359.984 269.648 361.41L233.291 374.502L250.613 492.727C234.746 493.407 218.866 493.583 202.969 493.3C180.721 492.904 158.485 491.936 136.241 491.357C114.69 490.796 93.1732 491.035 71.6454 492.11L66.1785 492.39C45.1121 493.444 24.2118 493.982 3.15411 491.934L1.71922 491.793L1.71899 474.499L9.11594 378.203L-28.3704 371.141L-65.1684 353.255C-66.2801 352.143 -67.1723 350.845 -67.6687 349.287C-68.5307 346.583 -67.8933 343.845 -67.1874 341.189L-67.0181 340.556C-65.6528 335.459 -64.105 330.411 -62.3817 325.424C-55.2858 304.894 -45.32 285.249 -32.4757 267.724C-19.7368 250.341 -4.28489 234.98 13.7562 223.15C22.7034 217.285 32.2267 212.348 42.2296 208.556Z" fill="#E279C7"/>
<path fill-rule="evenodd" clip-rule="evenodd" d="M56.3089 202.695C58.6076 202.595 60.9513 202.968 63.2445 203.193C63.4442 203.212 63.5202 203.521 63.2951 203.568C59.1911 204.426 55.1321 205.6 51.1014 206.792L49.3757 207.303C44.8305 208.649 40.4186 210.037 36.0185 211.832C27.249 215.408 18.9201 220.235 11.2547 225.782C-18.2626 247.14 -39.6259 279.475 -53.1074 312.953C-56.7686 322.046 -59.8707 331.363 -62.3836 340.838C-62.9945 343.144 -63.5696 345.458 -64.1145 347.779C-64.2743 348.46 -64.972 350.203 -64.5895 350.9C-64.2516 351.516 -62.9373 351.896 -62.3264 352.216L-60.2652 353.285C-56.2444 355.359 -49.5467 358.769 -48.875 359.1L-47.8274 359.617C-30.694 368.023 -12.387 375.151 6.89349 375.644L7.04443 373.996C7.90403 364.887 9.03208 355.729 11.4943 346.899C11.6267 346.425 12.2301 346.585 12.2852 347.006C13.6568 357.459 13.2184 367.994 12.7398 378.495C11.8924 397.093 10.7671 415.682 9.76695 434.274C9.2662 443.573 8.61903 452.868 8.03465 462.163C7.44939 471.477 7.26 481.014 5.92361 490.252C5.62578 492.311 3.21602 493.431 1.39108 493.214C-0.628204 492.973 -2.18155 491.193 -2.19104 489.153C-2.21545 483.771 -1.53979 478.327 -1.16422 472.959C-0.80764 467.859 -0.42485 462.762 -0.0325546 457.664C1.40101 439.062 3.05015 420.481 4.57545 401.885C5.11598 395.29 5.6999 388.701 6.30099 382.112C-14.1237 381.454 -33.2052 373.883 -51.4086 365.037C-51.6721 371.024 -52.3084 377 -52.9244 382.962C-54.6441 399.6 -56.1603 416.231 -57.2952 432.92C-57.8682 441.349 -58.2853 449.789 -58.6487 458.229C-58.8272 462.378 -58.9727 466.527 -59.0844 470.678C-59.1217 472.061 -59.1555 473.445 -59.1853 474.828L-59.2474 477.998C-59.2983 480.007 -59.5022 481.867 -61.1909 483.329C-62.9058 484.814 -65.2225 484.893 -66.92 483.329C-69.1926 481.235 -68.7905 478.382 -68.7232 475.57C-68.6672 473.198 -68.5999 470.826 -68.5219 468.454C-68.3652 463.711 -68.1651 458.969 -67.921 454.23C-67.0691 437.66 -65.3659 421.157 -63.1399 404.719L-62.271 398.374C-60.6483 386.578 -58.867 374.514 -55.2397 363.152C-56.652 362.449 -58.0603 361.741 -59.4631 361.03C-61.9515 359.769 -64.5247 358.586 -66.9433 357.194C-68.8622 356.09 -70.517 354.576 -71.0511 352.341C-71.647 349.851 -70.7359 347.128 -70.1307 344.7L-70.0784 344.486C-69.4851 342.04 -68.8459 339.605 -68.1714 337.18C-65.4376 327.348 -62.0564 317.707 -58.0996 308.302C-50.177 289.473 -39.9509 271.584 -27.4596 255.41C-16.2157 240.851 -2.93313 227.648 12.6345 217.746C20.2453 212.905 28.3558 208.93 36.9333 206.119C40.9424 204.806 45.3046 203.663 49.5023 203.193C51.7665 202.939 54.0339 202.794 56.3089 202.695ZM97.0339 172.859C99.7651 169.923 105.192 172.96 103.881 176.847C100.796 185.993 95.8831 194.334 88.2166 200.343C81.0094 205.992 72.4161 209.66 63.1611 208.878C63.0897 208.871 63.0278 208.853 62.973 208.827L63.7706 209.91C70.0321 218.386 76.6379 226.746 84.5995 233.673C100.821 247.79 122.907 255.403 144.235 249.987C161.015 245.727 175.797 232.448 180.145 215.525C179.522 215.805 178.781 215.9 177.969 215.723C174.49 214.967 171.046 211.306 168.803 208.681C166.375 205.841 164.48 202.775 163.09 199.308C160.548 192.965 159.732 184.797 163.205 178.652C163.633 177.894 164.621 178.319 164.705 179.058L164.837 180.213C165.506 185.972 166.34 191.543 169.054 196.793C170.381 199.362 171.973 201.869 173.911 204.021C174.947 205.172 176.072 206.272 177.285 207.237C178.467 208.177 179.898 208.857 180.958 209.936L181.153 210.143L181.158 210.106C181.426 207.826 183.024 206.822 184.587 206.885C186.1 206.945 187.877 207.612 188.565 207.931L188.63 207.962C199.184 213.032 208.904 219.64 218.051 226.972C236.968 242.135 251.141 261.955 258.009 285.297C261.379 296.753 263.313 308.557 265.355 320.307L266.611 327.505C268.517 338.351 270.646 349.412 274.947 359.501C276.06 362.111 275.202 364.559 272.474 365.585C269.067 366.867 265.647 368.108 262.223 369.334C263.905 376.554 264.93 384.024 266.19 391.279C268.868 406.702 272.15 422.025 274.964 437.428C276.402 445.303 277.7 453.204 279.137 461.08C279.829 464.873 280.551 468.661 281.253 472.451C281.632 474.496 281.975 476.547 282.336 478.593L282.399 478.933C282.606 480.013 282.865 481.13 282.568 482.211C282.231 483.444 281.269 484.314 280.411 485.198C279.704 485.926 278.683 485.93 277.818 485.533L277.533 485.401C275.987 484.677 274.777 483.956 274.228 482.211C273.881 481.106 273.756 479.861 273.529 478.723C273.094 476.541 272.681 474.356 272.291 472.164C271.513 467.78 270.751 463.393 270.008 459.003L269.314 454.891C266.933 440.721 264.67 426.465 263.527 412.146C263.02 405.794 262.482 399.447 261.94 393.098L261.532 388.337C261.017 382.31 260.387 376.131 260.298 370.023L258.25 370.751L248.258 374.285C245.78 375.162 242.626 376.957 239.959 376.63C238.654 376.471 237.658 376.06 236.89 375.312C237.811 388.308 239.056 401.281 240.716 414.187C242.226 425.931 243.901 437.66 245.879 449.334C246.858 455.116 247.864 460.892 248.958 466.652C249.504 469.532 250.068 472.409 250.649 475.283C250.939 476.716 251.284 478.151 251.51 479.597C251.768 481.252 251.313 482.271 250.389 483.632C249.63 484.751 248.112 485.326 246.881 484.554C245.251 483.53 244.401 482.643 243.922 480.78C243.486 479.087 243.221 477.319 242.884 475.605C242.262 472.439 241.66 469.271 241.079 466.097C239.865 459.461 238.746 452.809 237.746 446.137C234.223 422.633 231.988 398.931 230.859 375.191C230.302 363.478 230.129 351.755 230.229 340.03C230.279 334.02 230.475 327.993 230.9 321.998C231.33 315.929 232.225 309.982 233.024 303.972C233.052 303.761 233.35 303.749 233.363 303.972C233.741 310.711 234.334 317.441 234.625 324.197C234.902 330.643 235.024 337.1 235.244 343.548C235.534 352.025 235.936 360.506 236.468 368.983C237.431 367.928 238.883 367.32 240.335 367.558C242.44 367.116 244.705 366.011 246.71 365.34L254.274 362.812C258.25 361.483 262.225 360.164 266.215 358.883C262.647 346.874 260.204 334.685 258.117 322.319L257.187 316.757C255.345 305.81 253.359 294.858 250.022 284.257C246.515 273.112 241.266 262.75 234.303 253.367C227.439 244.118 219.089 235.976 210.491 228.359C203.13 221.839 195.256 215.952 187.748 209.611C187.827 210.031 187.843 210.494 187.774 211.002C186.178 222.694 180.084 233.582 171.591 241.68C154.527 257.949 129.27 261.324 107.431 253.695C86.3058 246.316 67.6281 228.839 61.0293 207.212C60.9163 206.842 61.4116 206.695 61.6104 206.967C61.9765 207.469 62.3444 207.971 62.7127 208.473C62.6879 208.274 62.7914 208.056 63.0372 207.961C70.7368 204.986 78.297 200.767 84.0684 194.798C86.8815 191.889 89.3365 188.592 91.2744 185.037C92.2024 183.334 93.0361 181.571 93.7017 179.749L93.8704 179.277C94.677 176.995 95.3508 174.667 97.0339 172.859Z" fill="black"/>
<path fill-rule="evenodd" clip-rule="evenodd" d="M204.749 103.844C203.778 95.2891 205.034 77.4078 205.118 76.3215C205.651 69.4536 202.442 42.3332 196.376 44.8321C186.201 36.7538 172.648 34.97 159.976 34.1179C133.652 32.3477 105.649 36.4115 85.3231 54.1772C75.2708 63.4033 65.4846 76.8221 66.2711 90.7941C57.1383 104.038 44.2629 122.205 55.6422 137.688C59.5102 142.635 65.6576 144.477 70.5167 148.223C80.2904 156.129 86.4223 167.475 96.2891 175.334C122.428 198.89 166.813 203.811 192.496 177.018C212.355 157.613 209.144 128.583 205.651 103.844C203.302 87.2127 206.643 120.534 204.749 103.844Z" fill="white"/>
<path fill-rule="evenodd" clip-rule="evenodd" d="M124.807 -2.16104C131.847 -3.58568 139.076 -4.47219 146.265 -4.20536L146.819 -4.18378C152.228 -3.96696 159.079 -3.48734 163.798 -0.332903C164.069 -0.606091 164.505 -0.74627 164.902 -0.556762C170.509 2.12755 176.677 4.06831 182.582 5.99686C188.459 7.91591 194.556 9.18276 200.716 9.69333C203.034 9.88561 205.017 12.3953 203.55 14.6463C203.2 15.1827 202.861 15.7246 202.522 16.2678C203.088 16.2085 203.655 16.1475 204.221 16.09C206.085 15.9019 207.948 17.8969 207.837 19.7169C207.768 20.8616 207.645 21.9928 207.462 23.1104C208.172 23.0955 208.878 23.2022 209.56 23.4912C213.013 24.9534 212.773 29.0778 212.514 32.2158C212.156 36.5704 210.532 41.1828 207.517 44.4419C209.768 46.787 211.361 49.5876 212.312 52.9136C213.002 55.3424 213.385 57.9295 213.196 60.4578L213.136 61.2147C212.902 63.9584 212.436 66.996 210.468 68.9698C209.458 69.9874 208.213 70.3582 207.026 70.2406C207.744 76.5636 208.204 82.9227 208.637 89.2592L208.84 92.2878C209.805 106.933 210.532 121.673 210.342 136.342C210.165 150.051 207.464 163.357 199.081 174.487C191.445 184.623 180.481 192.095 168.079 194.936C161.395 196.469 154.572 196.577 147.807 195.601C144.528 195.126 141.227 194.397 138.115 193.248C134.67 191.973 132.194 190.096 129.876 187.283C128.78 185.948 129.307 183.108 131.491 183.375C134.793 183.777 137.806 184.26 140.972 185.24L141.425 185.383C144.578 186.396 147.844 187.151 151.14 187.473C157.892 188.129 164.746 187.469 171.214 185.415C181.744 182.068 190.814 174.61 196.627 165.238C203.527 154.13 204.307 141.52 204.208 128.748C204.101 114.733 203.646 100.709 202.904 86.7078L202.778 84.3746C202.386 77.1697 202.007 69.9602 201.673 62.7509C201.57 60.4894 201.412 58.2099 201.127 55.953C198.526 54.4243 196.194 52.3166 194.674 49.716C191.621 50.9824 188.41 51.896 185.456 52.6242C178.612 54.3121 171.508 54.7219 164.542 53.6649C162.663 54.4433 160.747 55.1276 158.801 55.7165C158.275 55.9503 157.749 56.1801 157.224 56.4053C152.533 58.418 147.775 60.123 142.824 61.3714L141.607 61.6756C139.002 62.3198 136.171 62.9542 133.398 63.1534C132.943 63.3298 132.451 63.479 131.914 63.6102C129.389 64.2253 126.768 64.4198 124.18 64.2027C121.659 63.9901 119.836 61.4347 121.226 59.0421C122.241 57.2963 123.264 55.555 124.297 53.8182C120.703 55.3198 116.991 56.5681 113.248 57.6265C109.469 58.6939 105.635 59.5939 101.797 60.4216C99.745 60.8603 97.6844 61.2493 95.6371 61.6879C94.1711 62.0001 91.9206 62.1628 90.7251 63.1308C89.4038 64.1936 89.0301 66.6721 88.5287 68.2009C87.8705 70.1864 87.2527 72.181 86.6889 74.1982C85.5665 78.2235 84.646 82.3076 83.9338 86.4324C83.2209 90.5618 82.7428 94.7319 82.4766 98.9158C82.2111 103.095 82.3275 107.301 81.8997 111.462C81.6694 113.669 79.3062 114.804 77.5609 113.262C77.3564 113.081 77.15 112.898 76.9455 112.713L76.641 112.434C75.148 111.077 73.7002 109.639 72.5054 108.02C72.289 107.722 72.0814 107.41 71.8876 107.093C71.8561 107.093 71.8291 107.084 71.7976 107.061L71.466 106.811C67.8187 104.088 61.7251 100.539 58.1686 105.062C57.0353 106.503 56.455 108.338 55.9735 110.108L55.1284 113.276C54.5818 115.344 54.0674 117.424 53.7665 119.54C53.0855 124.28 53.4282 129.743 56.6803 133.542C57.9792 135.062 59.7696 136.147 61.767 136.432C62.8814 136.586 63.982 136.396 65.0868 136.256C66.2099 136.116 67.2915 136.342 68.4152 136.233C70.2008 136.057 70.9809 138.201 70.314 139.549C69.9529 140.272 69.5288 140.896 69.0462 141.425C69.4338 141.76 69.8044 142.122 70.1605 142.502C71.2156 142.841 72.1625 143.57 72.871 144.533C73.4435 145.311 73.7405 146.157 73.7908 147.048C73.8538 147.269 73.9079 147.495 73.9576 147.726L74.9252 149.301C75.1379 149.646 75.3499 149.987 75.5626 150.322C78.0252 154.212 80.759 157.505 84.1546 160.607C87.4245 163.592 90.973 166.265 94.0446 169.467L94.4064 169.848C97.2704 172.874 100.289 176.537 99.168 180.937C98.8792 182.068 97.305 182.882 96.277 182.118C92.9713 179.657 91.3071 175.758 88.5022 172.773C85.6156 169.698 82.4181 166.935 79.5233 163.868C76.7851 160.973 74.6245 157.695 72.9974 154.085C72.3475 154.804 71.4006 155.315 70.0881 155.515C67.8332 155.854 65.7311 154.529 64.7483 152.57C64.1166 152.851 63.4722 153.104 62.8223 153.302C59.4038 154.352 57.2531 150.539 58.5429 147.722C59.2325 146.211 60.0939 144.899 61.1632 143.796C57.8209 143.334 54.4204 141.602 52.2241 139.44C46.7134 134.008 45.9558 125.845 47.196 118.585C47.8544 114.736 48.9905 110.842 50.4657 107.228C50.7223 106.6 50.9979 105.966 51.2996 105.342C51.1327 105.338 50.9613 105.265 50.8531 105.125C49.8564 103.759 48.6437 102.642 47.9036 101.113C47.2226 99.7117 46.4654 98.2916 45.9283 96.8307C44.8238 93.8408 44.2826 90.4668 43.9218 87.3053C43.1777 80.8331 43.4659 74.4017 44.454 67.9702C46.1357 57.0159 50.1982 46.5328 56.1833 37.3343C55.8574 37.1625 55.5452 36.9552 55.2541 36.7101L55.1104 36.5844L54.8768 36.3727C53.1689 34.8227 53.3164 31.9177 54.8768 30.3478L55.3696 29.8524C55.9937 29.2307 56.5319 28.7381 57.5399 28.0611C57.6887 27.9611 57.8407 27.8671 57.9945 27.7793C57.4669 26.8015 57.2838 25.6581 57.6513 24.3967C58.9321 20.0023 65.2372 20.1579 69.2331 22.0742C73.6543 18.1172 78.5562 14.6821 83.8702 11.9005C96.5255 5.27903 110.835 0.66126 124.807 -2.16104ZM59.3926 113.578C61.7558 112.804 64.8949 114.428 67.019 115.405C69.7113 116.644 72.0021 118.476 74.2212 120.412C75.326 121.38 75.5242 122.963 75.2493 124.315C75.2216 124.451 75.1952 124.591 75.1631 124.731C74.8699 126.174 73.2649 127.309 71.8442 127.268C68.8719 127.187 67.4563 124.614 65.7739 122.434C65.5757 122.786 65.3278 123.112 65.0208 123.356L64.8131 123.519C64.1147 124.052 63.3453 124.479 62.4228 124.437C61.7688 124.406 61.1424 124.238 60.5647 123.935C59.1215 123.171 58.4861 121.298 58.878 119.774C59.1215 118.815 59.6807 118.065 60.4114 117.544L60.139 117.358C59.5563 116.951 59.0248 116.522 58.6106 115.89L58.5172 115.74H58.5533C58.1023 114.962 58.3958 113.903 59.3926 113.578Z" fill="black"/>
<path fill-rule="evenodd" clip-rule="evenodd" d="M159.961 159.441C156.924 158.2 154.213 156.132 152.231 153.489C151.542 152.57 151.364 151.6 151.508 150.712C151.671 149.714 152.26 148.81 153.065 148.203C153.872 147.595 154.881 147.295 155.857 147.448C156.705 147.581 157.549 148.045 158.217 149.009L158.357 149.202C159.535 150.797 161.071 152.106 162.82 152.949C164.506 153.762 166.392 154.142 168.343 153.921C172.06 153.501 174.622 151.49 177.344 148.758C177.682 148.413 178.019 148.057 178.359 147.696C178.573 147.369 178.871 147.158 179.201 147.047C179.568 146.924 179.982 146.931 180.362 147.064C180.729 147.192 181.056 147.435 181.276 147.757C181.484 148.064 181.602 148.443 181.564 148.879C181.315 151.71 179.836 154.236 177.736 156.22C175.403 158.423 172.31 159.948 169.398 160.482C166.19 161.071 162.922 160.649 159.961 159.441ZM170.914 115.769C174.327 117.844 179.527 122.685 175.856 127.832C171.534 132.37 165.312 127.167 162.245 124.814C159.403 122.99 156.208 127.68 158.846 129.81C181.002 146.226 189.993 116.312 172.64 113.328C170.729 112.999 170.02 115.126 170.914 115.769ZM131.208 96.6726C131.585 91.9887 138.713 90.9251 139.423 95.5603C140.057 99.7122 139.31 103.526 137.441 107.264C135.656 110.835 131.168 109.169 130.828 105.918C130.373 101.558 130.973 99.5864 131.208 96.6726ZM185.473 94.5993C186.467 93.2967 187.902 92.4075 189.621 92.91C194.993 94.4808 193.41 102.112 191.523 105.827C190.498 107.844 187.185 108.355 185.688 106.58C183.247 103.683 182.078 97.8989 185.181 95.0457C185.265 94.8982 185.359 94.7494 185.473 94.5993ZM137.366 76.1772L138.214 76.0286C140.839 75.5743 144.103 75.1378 145.96 77.2496C146.945 78.3695 147.283 80.4508 145.96 81.5228C143.632 83.4088 141.057 82.6779 138.267 82.8376C135.968 82.9696 133.757 83.3505 131.543 83.9841C126.683 85.374 122.724 87.9112 118.574 90.6974C118.029 91.0628 117.473 90.3658 117.733 89.8561C120.129 85.16 124.772 81.3025 129.422 78.9511C131.904 77.696 134.62 76.6548 137.366 76.1772ZM180.576 74.0736L181.226 74.2066C188.293 75.6849 197.475 78.638 200.821 85.5849C200.948 86.5672 200.814 86.7777 200.704 86.9153L200.668 86.961C200.578 87.0785 200.505 87.2404 200.08 87.3741C199.962 87.3459 199.843 87.3161 199.722 87.2845C198.188 86.8822 196.975 86.3279 195.799 85.7529L194.526 85.1247C193.047 84.3994 191.556 83.7005 189.976 83.1846C186.603 82.0837 183.135 81.3083 179.612 80.8942C178.849 80.8045 178.113 80.5466 177.533 80.1047C176.982 79.6852 176.562 79.1043 176.37 78.3323C176.122 77.3332 176.193 76.5768 176.729 75.6754C177.132 74.9985 177.708 74.5294 178.37 74.2599C179.044 73.9852 179.812 73.9205 180.576 74.0736Z" fill="black"/>
<path d="M126.794 280.689C194.554 280.689 249.484 225.759 249.484 158C249.484 90.2403 194.554 35.3104 126.794 35.3104C59.0349 35.3104 4.10501 90.2403 4.10501 158C4.10501 225.759 59.0349 280.689 126.794 280.689Z" stroke="black" stroke-width="7.8647"/>
</g>
</svg>
